<svg width="142" height="29" viewBox="0 0 142 29" fill="none" xmlns="http://www.w3.org/2000/svg">
<path d="M32.9727 24.14V6.92792H44.369V9.92824H36.6117V14.0296H43.6126V17.0299H36.6117V24.14H32.9727ZM50.3296 6.92792V24.14H46.7495V6.92792H50.3296ZM59.081 24.3922C57.7528 24.3922 56.6097 24.1232 55.6517 23.5853C54.6994 23.0418 53.9652 22.2742 53.4498 21.2826C52.9343 20.2852 52.6768 19.1058 52.6768 17.7443C52.6768 16.4164 52.9343 15.251 53.4498 14.2481C53.9652 13.2452 54.6908 12.4636 55.6266 11.9033C56.5681 11.343 57.6719 11.0629 58.9381 11.0629C59.7896 11.0629 60.5824 11.2001 61.3166 11.4747C62.0559 11.7436 62.7001 12.1498 63.2492 12.6933C63.8039 13.2368 64.2356 13.9203 64.5438 14.7439C64.8519 15.562 65.0057 16.5201 65.0057 17.6182V18.6015H54.1053V16.3828H61.6356C61.6356 15.8673 61.5239 15.4107 61.2995 15.0129C61.0756 14.6151 60.7647 14.3041 60.3666 14.08C59.9747 13.8503 59.5179 13.7354 58.9968 13.7354C58.4534 13.7354 57.9715 13.8615 57.5512 14.1136C57.1366 14.3601 56.8119 14.6935 56.5761 15.1137C56.3409 15.5283 56.2207 15.9906 56.215 16.5005V18.61C56.215 19.2487 56.3324 19.8005 56.5681 20.2656C56.809 20.7306 57.1479 21.0892 57.5848 21.3414C58.0217 21.5935 58.54 21.7196 59.1397 21.7196C59.5373 21.7196 59.9018 21.6635 60.2322 21.5515C60.5625 21.4394 60.8456 21.2713 61.0808 21.0472C61.3166 20.8231 61.4955 20.5486 61.619 20.2236L64.93 20.4421C64.762 21.2377 64.4174 21.9325 63.8967 22.5264C63.3812 23.1147 62.7143 23.5742 61.8964 23.9047C61.0837 24.2297 60.1455 24.3922 59.081 24.3922ZM70.1031 11.2309L72.473 15.7441L74.9022 11.2309H78.5748L74.835 17.6855L78.6756 24.14H75.0196L72.473 19.6773L69.9686 24.14H66.2709L70.1031 17.6855L66.4054 11.2309H70.1031ZM91.4419 14.9121L88.164 15.1137C88.1082 14.8336 87.9875 14.5815 87.8029 14.3574C87.6178 14.1276 87.374 13.9456 87.0716 13.8111C86.7743 13.671 86.4189 13.601 86.0042 13.601C85.4495 13.601 84.9818 13.7186 84.6008 13.9539C84.2197 14.1836 84.029 14.4918 84.029 14.8784C84.029 15.1866 84.1525 15.4471 84.3991 15.66C84.6453 15.8729 85.0684 16.0438 85.6681 16.1727L88.0045 16.6433C89.2593 16.9011 90.1951 17.3157 90.8114 17.8872C91.4277 18.4587 91.7358 19.2095 91.7358 20.1396C91.7358 20.9856 91.4864 21.728 90.9879 22.3667C90.4947 23.0054 89.8169 23.5041 88.954 23.8627C88.0968 24.2157 87.108 24.3922 85.9872 24.3922C84.2784 24.3922 82.9171 24.0364 81.9028 23.3248C80.8941 22.6076 80.3034 21.6327 80.1297 20.4001L83.6508 20.2152C83.7573 20.7362 84.0153 21.1341 84.4242 21.4086C84.8332 21.6776 85.3572 21.812 85.9957 21.812C86.6233 21.812 87.1274 21.6916 87.5085 21.4506C87.8952 21.2041 88.0911 20.8876 88.0968 20.5009C88.0911 20.1759 87.9539 19.9098 87.685 19.7025C87.4162 19.4896 87.0015 19.3271 86.4411 19.2151L84.2055 18.7696C82.9451 18.5175 82.0064 18.0805 81.3902 17.4585C80.7796 16.8366 80.4743 16.0438 80.4743 15.0801C80.4743 14.2509 80.6981 13.5365 81.1464 12.937C81.6003 12.3375 82.236 11.8752 83.0544 11.5503C83.878 11.2253 84.8417 11.0629 85.9455 11.0629C87.5757 11.0629 88.8589 11.4074 89.7947 12.0966C90.7357 12.7857 91.2847 13.7242 91.4419 14.9121ZM99.8232 24.3922C98.5007 24.3922 97.3633 24.112 96.4109 23.5517C95.4638 22.9858 94.7358 22.2014 94.2255 21.1985C93.7214 20.1956 93.4692 19.0414 93.4692 17.7359C93.4692 16.4136 93.7243 15.2538 94.2341 14.2565C94.7495 13.2536 95.4808 12.472 96.4275 11.9117C97.3746 11.3458 98.5007 11.0629 99.8061 11.0629C100.932 11.0629 101.919 11.2673 102.764 11.6764C103.611 12.0854 104.28 12.6597 104.773 13.3992C105.266 14.1388 105.538 15.0073 105.588 16.0046H102.21C102.115 15.3603 101.862 14.842 101.453 14.4498C101.05 14.052 100.52 13.8531 99.8648 13.8531C99.3106 13.8531 98.8259 14.0043 98.4112 14.3069C98.0023 14.6039 97.6828 15.0381 97.4532 15.6096C97.2232 16.1811 97.1086 16.8731 97.1086 17.6855C97.1086 18.5091 97.2203 19.2095 97.4447 19.7866C97.6742 20.3637 97.9966 20.8035 98.4112 21.106C98.8259 21.4086 99.3106 21.5599 99.8648 21.5599C100.274 21.5599 100.641 21.4758 100.966 21.3077C101.297 21.1397 101.568 20.8959 101.781 20.5766C102 20.2516 102.143 19.8622 102.21 19.4084H105.588C105.533 20.3945 105.263 21.2629 104.781 22.0137C104.305 22.7589 103.647 23.3416 102.807 23.7618C101.966 24.1821 100.971 24.3922 99.8232 24.3922ZM111.562 24.3837C110.738 24.3837 110.004 24.2409 109.36 23.9551C108.716 23.6638 108.205 23.2352 107.83 22.6693C107.46 22.0978 107.275 21.3862 107.275 20.5345C107.275 19.8174 107.407 19.2151 107.671 18.7276C107.934 18.2402 108.293 17.848 108.746 17.551C109.2 17.2541 109.716 17.0299 110.293 16.8787C110.876 16.7274 111.486 16.6209 112.125 16.5593C112.876 16.4809 113.481 16.408 113.94 16.3408C114.399 16.2679 114.733 16.1615 114.941 16.0214C115.148 15.8813 115.251 15.674 115.251 15.3995V15.3491C115.251 14.8168 115.083 14.405 114.747 14.1136C114.417 13.8223 113.946 13.6766 113.335 13.6766C112.691 13.6766 112.178 13.8195 111.797 14.1052C111.416 14.3854 111.164 14.7383 111.041 15.1642L107.729 14.8953C107.897 14.1108 108.228 13.4329 108.721 12.8614C109.214 12.2843 109.85 11.8416 110.629 11.5335C111.413 11.2197 112.321 11.0629 113.352 11.0629C114.069 11.0629 114.755 11.1469 115.411 11.315C116.072 11.483 116.658 11.7436 117.168 12.0966C117.683 12.4495 118.089 12.9034 118.386 13.4581C118.683 14.0072 118.832 14.6655 118.832 15.4331V24.14H115.436V22.3499H115.335C115.128 22.7533 114.851 23.1091 114.503 23.4172C114.156 23.7198 113.739 23.9579 113.251 24.1316C112.764 24.2997 112.2 24.3837 111.562 24.3837ZM112.587 21.9128C113.114 21.9128 113.579 21.8092 113.982 21.6019C114.386 21.389 114.702 21.1033 114.932 20.7447C115.162 20.3861 115.277 19.9798 115.277 19.526V18.1561C115.164 18.2289 115.011 18.2962 114.814 18.3578C114.624 18.4139 114.408 18.4671 114.167 18.5175C113.926 18.5623 113.685 18.6043 113.444 18.6436C113.203 18.6772 112.985 18.708 112.789 18.736C112.368 18.7976 112.002 18.8957 111.688 19.0302C111.374 19.1646 111.13 19.3467 110.956 19.5765C110.783 19.8005 110.696 20.0807 110.696 20.4169C110.696 20.9044 110.873 21.2769 111.226 21.5347C111.584 21.7868 112.038 21.9128 112.587 21.9128ZM125.19 6.92792V24.14H121.609V6.92792H125.19ZM133.941 24.3922C132.612 24.3922 131.47 24.1232 130.512 23.5853C129.559 23.0418 128.825 22.2742 128.31 21.2826C127.794 20.2852 127.536 19.1058 127.536 17.7443C127.536 16.4164 127.794 15.251 128.31 14.2481C128.825 13.2452 129.55 12.4636 130.486 11.9033C131.428 11.343 132.531 11.0629 133.798 11.0629C134.649 11.0629 135.442 11.2001 136.176 11.4747C136.915 11.7436 137.56 12.1498 138.109 12.6933C138.664 13.2368 139.095 13.9203 139.403 14.7439C139.711 15.562 139.866 16.5201 139.866 17.6182V18.6015H128.965V16.3828H136.496C136.496 15.8673 136.383 15.4107 136.159 15.0129C135.935 14.6151 135.624 14.3041 135.226 14.08C134.834 13.8503 134.377 13.7354 133.856 13.7354C133.313 13.7354 132.831 13.8615 132.411 14.1136C131.996 14.3601 131.671 14.6935 131.436 15.1137C131.2 15.5283 131.08 15.9906 131.075 16.5005V18.61C131.075 19.2487 131.192 19.8005 131.428 20.2656C131.669 20.7306 132.007 21.0892 132.444 21.3414C132.882 21.5935 133.4 21.7196 133.999 21.7196C134.397 21.7196 134.761 21.6635 135.092 21.5515C135.423 21.4394 135.706 21.2713 135.941 21.0472C136.176 20.8231 136.356 20.5486 136.479 20.2236L139.79 20.4421C139.622 21.2377 139.277 21.9325 138.756 22.5264C138.241 23.1147 137.574 23.5742 136.756 23.9047C135.944 24.2297 135.005 24.3922 133.941 24.3922Z" fill="white"/>
<path d="M23.43 6.62665H18.6966C18.0431 6.62665 17.5133 7.15644 17.5133 7.80998V22.9566C17.5133 23.6102 18.0431 24.14 18.6966 24.14H23.43C24.0835 24.14 24.6133 23.6102 24.6133 22.9566V7.80998C24.6133 7.15644 24.0835 6.62665 23.43 6.62665Z" fill="#8AA080"/>
<path d="M14.91 13.7267H10.1767C9.52314 13.7267 8.99335 14.2565 8.99335 14.91V22.9567C8.99335 23.6102 9.52314 24.14 10.1767 24.14H14.91C15.5636 24.14 16.0933 23.6102 16.0933 22.9567V14.91C16.0933 14.2565 15.5636 13.7267 14.91 13.7267Z" fill="#8AA080"/>
<path d="M6.86332 18.46H2.12999C1.47645 18.46 0.946655 18.9898 0.946655 19.6434V22.9567C0.946655 23.6102 1.47645 24.14 2.12999 24.14H6.86332C7.51686 24.14 8.04666 23.6102 8.04666 22.9567V19.6434C8.04666 18.9898 7.51686 18.46 6.86332 18.46Z" fill="#8AA080"/>
</svg>
